<mxfile host="app.diagrams.net" agent="Mozilla/5.0 (Windows NT 10.0; Win64; x64) AppleWebKit/537.36 (KHTML, like Gecko) Chrome/130.0.0.0 Safari/537.36" version="24.8.3">
  <diagram name="Страница — 1" id="fT1QAbSfde_ShpFLxwCB">
    <mxGraphModel dx="1290" dy="565" grid="1" gridSize="10" guides="1" tooltips="1" connect="1" arrows="1" fold="1" page="1" pageScale="1" pageWidth="827" pageHeight="1169" math="0" shadow="0">
      <root>
        <mxCell id="0" />
        <mxCell id="1" parent="0" />
        <mxCell id="92aNeTNML9O3eHz1yHTK-1" value="&lt;div&gt;&lt;br&gt;&lt;/div&gt;&lt;div&gt;Построить маршрут по городу согласно параметрам&lt;/div&gt;&lt;div&gt;дорожного покрытия&lt;/div&gt;&lt;div&gt;&lt;br&gt;&lt;/div&gt;" style="rounded=0;whiteSpace=wrap;html=1;" vertex="1" parent="1">
          <mxGeometry x="290" y="180" width="250" height="100" as="geometry" />
        </mxCell>
        <mxCell id="92aNeTNML9O3eHz1yHTK-2" value="" style="endArrow=classic;html=1;rounded=0;entryX=0.004;entryY=0.186;entryDx=0;entryDy=0;entryPerimeter=0;" edge="1" parent="1" target="92aNeTNML9O3eHz1yHTK-1">
          <mxGeometry width="50" height="50" relative="1" as="geometry">
            <mxPoint x="120" y="200" as="sourcePoint" />
            <mxPoint x="440" y="270" as="targetPoint" />
          </mxGeometry>
        </mxCell>
        <mxCell id="92aNeTNML9O3eHz1yHTK-3" value="" style="endArrow=classic;html=1;rounded=0;entryX=0;entryY=0.57;entryDx=0;entryDy=0;entryPerimeter=0;" edge="1" parent="1" target="92aNeTNML9O3eHz1yHTK-1">
          <mxGeometry width="50" height="50" relative="1" as="geometry">
            <mxPoint x="100" y="240" as="sourcePoint" />
            <mxPoint x="440" y="270" as="targetPoint" />
          </mxGeometry>
        </mxCell>
        <mxCell id="92aNeTNML9O3eHz1yHTK-4" value="" style="endArrow=classic;html=1;rounded=0;entryX=0.021;entryY=0.874;entryDx=0;entryDy=0;entryPerimeter=0;" edge="1" parent="1" target="92aNeTNML9O3eHz1yHTK-1">
          <mxGeometry width="50" height="50" relative="1" as="geometry">
            <mxPoint x="110" y="270" as="sourcePoint" />
            <mxPoint x="440" y="270" as="targetPoint" />
          </mxGeometry>
        </mxCell>
        <mxCell id="92aNeTNML9O3eHz1yHTK-5" value="Предпочтения пользователя" style="text;html=1;align=center;verticalAlign=middle;whiteSpace=wrap;rounded=0;" vertex="1" parent="1">
          <mxGeometry x="95" y="240" width="170" height="30" as="geometry" />
        </mxCell>
        <mxCell id="92aNeTNML9O3eHz1yHTK-6" value="&lt;div style=&quot;text-align: center;&quot;&gt;Данные о состоянии дорог города&lt;/div&gt;" style="text;whiteSpace=wrap;html=1;" vertex="1" parent="1">
          <mxGeometry x="70" y="210" width="220" height="40" as="geometry" />
        </mxCell>
        <mxCell id="92aNeTNML9O3eHz1yHTK-11" value="Начальная и конечная точки" style="text;html=1;align=center;verticalAlign=middle;whiteSpace=wrap;rounded=0;" vertex="1" parent="1">
          <mxGeometry x="110" y="170" width="170" height="30" as="geometry" />
        </mxCell>
        <mxCell id="92aNeTNML9O3eHz1yHTK-12" value="" style="endArrow=classic;html=1;rounded=0;entryX=0.218;entryY=-0.014;entryDx=0;entryDy=0;entryPerimeter=0;" edge="1" parent="1" target="92aNeTNML9O3eHz1yHTK-1">
          <mxGeometry width="50" height="50" relative="1" as="geometry">
            <mxPoint x="345" y="40" as="sourcePoint" />
            <mxPoint x="440" y="270" as="targetPoint" />
          </mxGeometry>
        </mxCell>
        <mxCell id="92aNeTNML9O3eHz1yHTK-13" value="" style="endArrow=classic;html=1;rounded=0;entryX=0.541;entryY=0.002;entryDx=0;entryDy=0;entryPerimeter=0;" edge="1" parent="1" target="92aNeTNML9O3eHz1yHTK-1">
          <mxGeometry width="50" height="50" relative="1" as="geometry">
            <mxPoint x="430" y="30" as="sourcePoint" />
            <mxPoint x="430" y="170" as="targetPoint" />
          </mxGeometry>
        </mxCell>
        <mxCell id="92aNeTNML9O3eHz1yHTK-14" value="Установленные&lt;div&gt;в системе типы покрытия&lt;/div&gt;" style="text;html=1;align=center;verticalAlign=middle;whiteSpace=wrap;rounded=0;" vertex="1" parent="1">
          <mxGeometry x="265" y="60" width="60" height="30" as="geometry" />
        </mxCell>
        <mxCell id="92aNeTNML9O3eHz1yHTK-15" value="Частота обновления&lt;div&gt;данных&lt;/div&gt;" style="text;html=1;align=center;verticalAlign=middle;whiteSpace=wrap;rounded=0;" vertex="1" parent="1">
          <mxGeometry x="360" y="60" width="60" height="30" as="geometry" />
        </mxCell>
        <mxCell id="92aNeTNML9O3eHz1yHTK-16" value="Установленный режим работы/алгоритм" style="text;html=1;align=center;verticalAlign=middle;whiteSpace=wrap;rounded=0;" vertex="1" parent="1">
          <mxGeometry x="450" y="50" width="60" height="30" as="geometry" />
        </mxCell>
        <mxCell id="92aNeTNML9O3eHz1yHTK-17" value="" style="endArrow=classic;html=1;rounded=0;entryX=0.934;entryY=-0.006;entryDx=0;entryDy=0;entryPerimeter=0;" edge="1" parent="1" target="92aNeTNML9O3eHz1yHTK-1">
          <mxGeometry width="50" height="50" relative="1" as="geometry">
            <mxPoint x="524" y="40" as="sourcePoint" />
            <mxPoint x="440" y="270" as="targetPoint" />
          </mxGeometry>
        </mxCell>
        <mxCell id="92aNeTNML9O3eHz1yHTK-18" value="" style="endArrow=classic;html=1;rounded=0;entryX=0.061;entryY=0.994;entryDx=0;entryDy=0;entryPerimeter=0;" edge="1" parent="1" target="92aNeTNML9O3eHz1yHTK-1">
          <mxGeometry width="50" height="50" relative="1" as="geometry">
            <mxPoint x="305" y="460" as="sourcePoint" />
            <mxPoint x="440" y="270" as="targetPoint" />
          </mxGeometry>
        </mxCell>
        <mxCell id="92aNeTNML9O3eHz1yHTK-19" value="" style="endArrow=classic;html=1;rounded=0;entryX=0.371;entryY=1.026;entryDx=0;entryDy=0;entryPerimeter=0;" edge="1" parent="1" target="92aNeTNML9O3eHz1yHTK-1">
          <mxGeometry width="50" height="50" relative="1" as="geometry">
            <mxPoint x="383" y="450" as="sourcePoint" />
            <mxPoint x="415" y="280" as="targetPoint" />
          </mxGeometry>
        </mxCell>
        <mxCell id="92aNeTNML9O3eHz1yHTK-20" value="" style="endArrow=classic;html=1;rounded=0;entryX=0.666;entryY=1.002;entryDx=0;entryDy=0;entryPerimeter=0;" edge="1" parent="1" target="92aNeTNML9O3eHz1yHTK-1">
          <mxGeometry width="50" height="50" relative="1" as="geometry">
            <mxPoint x="450" y="450" as="sourcePoint" />
            <mxPoint x="440" y="270" as="targetPoint" />
          </mxGeometry>
        </mxCell>
        <mxCell id="92aNeTNML9O3eHz1yHTK-21" value="" style="endArrow=classic;html=1;rounded=0;entryX=0.925;entryY=1.002;entryDx=0;entryDy=0;entryPerimeter=0;" edge="1" parent="1" target="92aNeTNML9O3eHz1yHTK-1">
          <mxGeometry width="50" height="50" relative="1" as="geometry">
            <mxPoint x="520" y="460" as="sourcePoint" />
            <mxPoint x="440" y="270" as="targetPoint" />
          </mxGeometry>
        </mxCell>
        <mxCell id="92aNeTNML9O3eHz1yHTK-22" value="ГИС" style="text;html=1;align=center;verticalAlign=middle;whiteSpace=wrap;rounded=0;" vertex="1" parent="1">
          <mxGeometry x="240" y="320" width="60" height="30" as="geometry" />
        </mxCell>
        <mxCell id="92aNeTNML9O3eHz1yHTK-23" value="Записи с видео&amp;nbsp;&lt;div&gt;регистраторов&lt;/div&gt;" style="text;html=1;align=center;verticalAlign=middle;whiteSpace=wrap;rounded=0;" vertex="1" parent="1">
          <mxGeometry x="320" y="320" width="60" height="30" as="geometry" />
        </mxCell>
        <mxCell id="92aNeTNML9O3eHz1yHTK-25" value="Система, сервер" style="text;html=1;align=center;verticalAlign=middle;whiteSpace=wrap;rounded=0;" vertex="1" parent="1">
          <mxGeometry x="530" y="310" width="60" height="30" as="geometry" />
        </mxCell>
        <mxCell id="92aNeTNML9O3eHz1yHTK-26" value="Пользователь, администратор" style="text;html=1;align=center;verticalAlign=middle;whiteSpace=wrap;rounded=0;" vertex="1" parent="1">
          <mxGeometry x="414" y="310" width="60" height="30" as="geometry" />
        </mxCell>
        <mxCell id="92aNeTNML9O3eHz1yHTK-27" value="" style="endArrow=classic;html=1;rounded=0;exitX=1;exitY=0.5;exitDx=0;exitDy=0;" edge="1" parent="1" source="92aNeTNML9O3eHz1yHTK-1">
          <mxGeometry width="50" height="50" relative="1" as="geometry">
            <mxPoint x="390" y="320" as="sourcePoint" />
            <mxPoint x="700" y="230" as="targetPoint" />
          </mxGeometry>
        </mxCell>
        <mxCell id="92aNeTNML9O3eHz1yHTK-29" value="Визуализированный оптимальный маршрут" style="text;html=1;align=center;verticalAlign=middle;whiteSpace=wrap;rounded=0;" vertex="1" parent="1">
          <mxGeometry x="580" y="190" width="60" height="30" as="geometry" />
        </mxCell>
      </root>
    </mxGraphModel>
  </diagram>
</mxfile>
